# xmcd CD database file
#
# Track frame offsets:
#	150
#	12235
#	24830
#	37537
#	51680
#	63987
#	78462
#	91552
#	103392
#	116165
#	128850
#	142372
#	156510
#	169265
#	182470
#	194815
#	208060
#	219632
#	232337
#	244845
#	258045
#	268957
#	281787
#	293842
#
# Disc length: 4092 seconds
#
# Revision: 0
# Processed by: cddbd v1.5.1PL2 Copyright (c) Steve Scherf et al.
# Submitted via: CDex 1.51
#
DISCID=770ffa18
DTITLE=Memphis Slim - The Complete Recordings Volume 2 (1946-1948)
DYEAR=2000
DGENRE=Blues
TTITLE0=(Now I) Got The Blues
TTITLE1=Don't Ration My Love
TTITLE2=Mistake In Life
TTITLE3=Grinder Man Blues
TTITLE4=Slim's Boogie
TTITLE5=Little Mary
TTITLE6=Cheatin' Around
TTITLE7=A Letter Home
TTITLE8=Kilroy Has Been Here
TTITLE9=Rockin' The House
TTITLE10=Lend Me Your Love
TTITLE11=Darling I Miss You
TTITLE12=Pacemaker Boogie
TTITLE13=(Sometimes I Feel Like A) Motherless Child
TTITLE14=Harlem Bound
TTITLE15=Life Is Like That
TTITLE16=Nobody Loves Me (Everyday I Have The Blues)
TTITLE17=Nobody Loves Me (Master Version)
TTITLE18=Believe I'll Settle Down
TTITLE19=Throw This Poor Dog A Bone
TTITLE20=Help Me Some
TTITLE21=Country Girl
TTITLE22=Blue And Lonesome
TTITLE23=Angel Child
EXTD=YEAR: 2000
EXTT0=
EXTT1=
EXTT2=
EXTT3=
EXTT4=
EXTT5=
EXTT6=
EXTT7=
EXTT8=
EXTT9=
EXTT10=
EXTT11=
EXTT12=
EXTT13=
EXTT14=
EXTT15=
EXTT16=
EXTT17=
EXTT18=
EXTT19=
EXTT20=
EXTT21=
EXTT22=
EXTT23=
PLAYORDER=
